<?xml version="1.0" standalone="no"?>
<!DOCTYPE svg PUBLIC "-//W3C//DTD SVG 20010904//EN"
 "http://www.w3.org/TR/2001/REC-SVG-20010904/DTD/svg10.dtd">
<svg version="1.0" xmlns="http://www.w3.org/2000/svg"
 width="104.000000pt" height="104.000000pt" viewBox="0 0 104.000000 104.000000"
 preserveAspectRatio="xMidYMid meet">
<metadata>
Created by potrace 1.11, written by Peter Selinger 2001-2013
</metadata>
<g transform="translate(0.000000,104.000000) scale(0.100000,-0.100000)"
fill="#000000" stroke="none">
<path d="M482 947 c-27 -29 -28 -47 -1 -81 28 -35 70 -35 98 0 54 69 -38 144
-97 81z"/>
<path d="M415 814 c-11 -8 -75 -47 -142 -85 -68 -39 -123 -76 -124 -82 0 -13
0 -193 0 -332 l1 -91 113 -64 c61 -35 140 -80 174 -101 35 -21 71 -40 82 -44
13 -4 64 21 162 78 79 46 163 94 187 107 l42 24 -2 224 -3 224 -45 25 c-211
119 -242 135 -251 126 -12 -12 -2 -20 66 -58 28 -15 85 -47 127 -72 l77 -44 3
-201 c2 -124 -1 -206 -7 -214 -5 -7 -26 -21 -45 -32 -19 -11 -87 -50 -150 -87
-114 -66 -158 -84 -169 -68 -3 5 -42 30 -86 55 -44 25 -100 58 -125 72 -25 15
-60 34 -78 43 -18 9 -35 26 -38 38 -2 11 -3 105 -2 210 l3 189 60 34 c108 61
129 74 173 99 23 14 39 29 36 34 -7 12 -16 11 -39 -7z"/>
<path d="M511 796 c-6 -7 -72 -48 -148 -91 -76 -43 -140 -82 -143 -86 -5 -7
-5 -326 -1 -351 1 -7 104 -68 115 -68 3 0 6 27 6 60 0 33 -4 60 -10 60 -6 0
-10 45 -10 114 0 114 5 146 21 146 4 0 34 16 65 34 32 19 61 33 65 31 4 -3 7
-123 6 -266 0 -243 1 -263 18 -276 26 -18 52 -16 74 6 17 17 18 37 16 280 -1
143 1 261 3 261 11 0 137 -74 144 -84 12 -17 10 -256 -2 -256 -5 0 -10 -25
-10 -55 0 -30 4 -55 8 -55 4 0 32 15 62 33 l55 32 1 177 c0 98 -2 181 -5 185
-7 10 -113 73 -206 123 -33 18 -64 36 -70 40 -22 16 -44 18 -54 6z"/>
</g>
</svg>
